<?xml version="1.0" encoding="utf-8"?>
<!-- Generator: Adobe Illustrator 19.0.0, SVG Export Plug-In . SVG Version: 6.00 Build 0)  -->
<svg version="1.1" xmlns="http://www.w3.org/2000/svg" xmlns:xlink="http://www.w3.org/1999/xlink" x="0px" y="0px"
	 viewBox="0 0 1000 1000" style="enable-background:new 0 0 1000 1000;" xml:space="preserve">
<style type="text/css">
	.st0{display:none;}
	.st1{display:inline;fill:#FF0000;}
	.st2{display:inline;}
	.st3{fill:#FF0000;}
</style>
<g id="Layer_3" class="st0">
</g>
<g id="_x34_" class="st0">
	<path id="XMLID_10_" class="st1" d="M-133.6,111c-0.1-1-0.3-2.1-0.3-3.1c0-51.5,0-103.2,0-154.7c0-0.7,0.1-1.1,0.1-2.1
		c-23.3,0-46.6,0-70,0c-0.8,2-1.4,3.2-2.3,4.5C-230-8.8-254,27.1-277.9,63.1c-13.7,20-27.4,40.7-41,61.1c-1.2,1.7-1.9,3.8-1.9,5.9
		c-0.1,11.1-0.1,22-0.1,33c0,4,0,7.6,0,11.5c0,1.4,0.1,3.4,0.2,4.4c37.1,0,73.7,0,110.7,0c0,19,0,104.9,0,123.6
		c25,0,51,38.8,76,38.8c0-18.9,0-143.4,0-162.4c13,0,25,0,38,0c0-22,0-45,0-68C-109,111-121,111-133.6,111z M-210,111
		c-9,0-16.8,0-25.6,0c8.5-14,16.6-26.5,25.6-40.3C-210,84.7-210,98-210,111z"/>
</g>
<g id="connect" class="st0">
	<g id="XMLID_2_" class="st2">
		<g id="XMLID_30_">
			<path id="XMLID_78_" d="M-468.4,585.1c0.3-2.3,0.6-4.6,1-6.8c1.3-7.4,4-14.2,8.7-20.1c5.1-6.4,11.8-10.2,19.9-11.4
				c6.6-0.9,13.2-0.4,19.4,2.4c7.8,3.6,12.9,9.6,16.1,17.4c1.9,4.8,2.7,9.8,3.3,14.9c-7.1,0.7-14.1,1.5-21.3,2.2
				c-0.4-2-0.8-3.9-1.3-5.8c-0.9-3.3-1.9-6.6-4.4-9.2c-3.6-3.6-9.6-3.3-12.8,0.6c-2.2,2.7-3.3,5.9-3.9,9.3
				c-1.4,7.9-1.4,15.8,0.6,23.7c0.7,2.6,1.8,5,3.6,7.1c3.8,4.3,9.7,4.3,13.6,0.1c2.7-2.9,3.7-6.5,3.9-10.3c0-0.9,0.2-1.9,0.3-3
				c7.2,0.8,14.3,1.6,21.7,2.4c-0.4,2.7-0.5,5.3-1.1,7.9c-2,10.1-7.3,18-16.5,23c-6,3.2-12.6,4-19.3,3.5c-13.8-1-22.1-9.1-27.3-21.2
				c-2.3-5.3-3.5-10.9-3.9-16.7c0-0.3-0.1-0.6-0.2-0.9C-468.4,591.2-468.4,588.1-468.4,585.1z"/>
		</g>
		<g id="XMLID_28_">
			<path id="XMLID_76_" d="M-192,631.9c-1.9,0-3.7,0-5.5,0c-4.5,0-9,0-13.6,0c-0.9,0-1.3-0.2-1.8-1c-8-13.4-15.9-26.9-23.9-40.3
				c-0.3-0.5-0.6-1-1.1-1.5c0,14.2,0,28.4,0,42.7c-6.7,0-13.3,0-20,0c0-28,0-56.1,0-84.3c0.4,0,0.8-0.1,1.3-0.1c6.6,0,13.1,0,19.7,0
				c0.8,0,1.3,0.2,1.7,1c7.5,12.7,15.1,25.4,22.6,38c0.2,0.4,0.5,0.7,0.9,1.4c0-13.6,0-26.9,0-40.3c6.6,0,13.1,0,19.7,0
				C-192,575.6-192,603.7-192,631.9z"/>
		</g>
		<g id="XMLID_27_">
			<path id="XMLID_73_" d="M-305.8,631.9c-6.8,0-13.3,0-19.9,0c0-28.1,0-56.1,0-84.4c0.4,0,0.8,0,1.2,0c6.6,0,13.2,0,19.8,0
				c0.8,0,1.3,0.3,1.7,1c7.5,12.6,15,25.3,22.5,37.9c0.3,0.4,0.5,0.9,1,1.2c0-13.3,0-26.6,0-40c6.6,0,13.1,0,19.7,0
				c0,28.1,0,56.1,0,84.3c-0.4,0-0.8,0.1-1.2,0.1c-6,0-12,0-18,0c-0.8,0-1.3-0.3-1.7-1c-8.1-13.6-16.1-27.2-24.2-40.8
				c-0.2-0.4-0.4-0.7-0.9-1C-305.8,603.3-305.8,617.5-305.8,631.9z"/>
		</g>
		<g id="XMLID_24_">
			<path id="XMLID_85_" d="M-326.7,591.5c-0.1,7.3-1.6,15.9-6.2,23.8c-5.7,9.7-13.8,15.8-25.1,17.3c-10.5,1.4-20.2-0.5-28.3-7.8
				c-5.9-5.3-9.6-12.1-11.6-19.7c-3.3-12.6-3.1-25,2.3-37.1c3.4-7.7,8.7-14,16.3-18c4.4-2.3,9.1-3.5,14-3.7c9.4-0.5,17.9,1.8,25,8.3
				c5.1,4.6,8.5,10.4,10.7,16.8C-327.5,577.4-326.7,583.6-326.7,591.5z M-350.5,589.9c0-0.8,0-1.7,0-2.5c-0.2-4.6-0.7-9.1-2.3-13.4
				c-0.9-2.2-1.9-4.2-3.8-5.7c-5-3.9-12.9-2.3-16.1,3.3c-0.6,1-1.1,2.1-1.4,3.3c-2.6,8.8-2.6,17.7-0.8,26.7c0.5,2.3,1.4,4.5,2.5,6.5
				c3.8,6.7,12.3,6,16.4,2.1c2.2-2,3.4-4.5,4.1-7.3C-350.8,598.7-350.6,594.3-350.5,589.9z"/>
		</g>
		<g id="XMLID_23_">
			<path id="XMLID_71_" d="M-167.5,567.8c0,3.8,0,7.5,0,11.3c9.3,0,18.6,0,27.9,0c0,6.8,0,13.3,0,20c-9.3,0-18.6,0-27.9,0
				c0,4.1,0,8,0,12.1c5.9,0,11.7,0,17.6,0c5.9,0,11.7,0,17.7,0c0,6.9,0,13.7,0,20.6c-19.3,0-38.6,0-57.9,0c0-28.1,0-56.1,0-84.3
				c19.1,0,38.2,0,57.4,0c0,6.7,0,13.4,0,20.2C-144.3,567.8-155.8,567.8-167.5,567.8z"/>
		</g>
		<g id="XMLID_13_">
			<path id="XMLID_67_" d="M-63.6,581.7c-7.4,0.8-14.4,1.5-21.5,2.3c-0.5-2.1-0.8-4.2-1.4-6.2c-0.9-3.3-1.9-6.4-4.4-8.9
				c-3.5-3.5-9.4-3.2-12.6,0.6c-2.5,2.9-3.6,6.5-4.2,10.2c-1.2,7.8-1.4,15.6,0.9,23.3c0.6,2.2,1.7,4.3,3.1,6.2
				c3.8,5.1,10.3,5.1,14.4,0.2c2.1-2.5,3.1-5.5,3.4-8.8c0.1-1.3,0.2-2.6,0.3-4c7.2,0.8,14.4,1.6,21.5,2.4
				c-0.2,18-11.4,32.6-29.2,34.3c-5.6,0.5-11.1,0.2-16.4-1.8c-7.1-2.6-12.1-7.7-15.8-14.2c-3.8-6.6-5.8-13.8-6.4-21.4
				c-0.7-9-0.1-17.9,3.2-26.4c2.9-7.5,7.4-13.9,14.4-18.2c4.6-2.8,9.6-4.2,15-4.5c6.6-0.4,12.8,0.7,18.6,4
				c7.9,4.5,12.5,11.5,14.8,20.1C-64.9,574.2-64.4,577.9-63.6,581.7z"/>
		</g>
		<g id="XMLID_12_">
			<path id="XMLID_65_" d="M0,547.8c0,6.8,0,13.6,0,20.5c-6.6,0-13.2,0-20,0c0,21.3,0,42.5,0,63.7c-7.9,0-15.7,0-23.6,0
				c0-21.2,0-42.3,0-63.6c-6.7,0-13.3,0-20,0c0-6.9,0-13.7,0-20.6C-42.4,547.8-21.3,547.8,0,547.8z"/>
		</g>
	</g>
</g>
<g id="JIMK" class="st0">
	<path id="XMLID_19_" class="st2" d="M-280.5,435.8c-0.3-0.8-0.5-1.2-0.6-1.7c-4.2-12.8-8.3-25.5-12.4-38.3c-0.4-1.3-1-1.7-2.2-1.7
		c-7.8,0.1-15.5-0.1-23.3-0.1c-0.5,0-0.9,0-1.9,0c0,28,0,55,0,82c6,0,12,0,17,0c0-17,0-33.1,0-49.4c1,0.3,0.6,0.6,0.7,0.9
		c5,15.6,10,31.1,14.9,46.7c0.4,1.2,0.9,1.5,2.1,1.5c3-0.1,5.9-0.1,8.9,0c0.9,0,1.2-0.3,1.5-1.1c3.9-12.3,7.8-24.6,11.7-36.9
		c1.1-3.6,2.5-7.1,3.6-10.7c0.1,0-0.5,0,0.5,0.1c0,16.2,0,31.9,0,48.9c6,0,13,0,19,0c0-28,0-55,0-82c-9,0-17.4,0-26.2,0
		C-271.6,408-276.1,421.8-280.5,435.8z"/>
	<path id="XMLID_20_" class="st2" d="M-181.6,423.7c-0.4-0.9-0.3-1.5,0.3-2.3c6.3-8.6,12.5-17.4,18.7-26.1c0.2-0.3,0.5-0.3,0.8-1.3
		c-0.6,0-1,0-1.3,0c-6.2,0-12.5,0.2-18.7,0.1c-0.8,0-1.3,0.3-1.8,1c-7.4,10.1-14.8,20.1-22.1,30.2c-0.4,0.6-0.7,1.1-1.2,1.7
		c-0.1,0-0.1,0-0.1-0.1c0-10.8,0-21.9,0-32.9c-7,0-13,0-20,0c0,28,0,55,0,82c7,0,13.3,0,19.8,0c0-7,0-13.5,0-20.1
		c0-0.6,0.2-1.4,0.6-1.9c3.1-4.2,6.2-8.4,9.4-12.5c0.2-0.3,0.5-0.6,0.9-1c1.2,2.9,2.4,5.7,3.5,8.5c3.6,8.6,7.1,17.2,10.7,25.8
		c0.2,0.4,0.6,0.9,1,0.9c7,0.1,13.9,0,21.1,0c-0.2-0.5-0.3-0.9-0.5-1.3C-167.5,457.5-174.6,440.6-181.6,423.7z"/>
	<path id="XMLID_21_" class="st2" d="M-379,395.2c0,17.7-0.1,35.4-0.2,53.1c0,1.9-0.2,3.8-0.6,5.7c-0.5,2.8-1.5,3.9-4.3,4.1
		c-2.9,0.3-5.8,0.2-8.7,0.2c-2.3,0-4.5-0.3-6.9-0.4c0,0.4-0.1,0.5-0.1,0.7c0,5,0,9.9,0,14.9c0,0.7,0.3,0.9,0.9,1.1
		c7.8,2.2,15.6,2.3,23.5,0.4c7.2-1.8,12-6.3,14.3-13.3c1.4-4.2,1.9-8.6,1.9-13c0-17.9,0.2-35.7,0.2-53.6c0-0.4,0-1,0-1
		c-7,0-14,0-20,0C-379,394-379,394.7-379,395.2z"/>
	<path id="XMLID_22_" class="st2" d="M-352,476c6,0,13,0,19,0c0-27,0-55,0-82c-6,0-13,0-19,0C-352,422-352,449-352,476z"/>
</g>
<g id="Icon_Logo">
	<path id="XMLID_1_" class="st3" d="M691.9,409c-0.3-2-0.8-4.7-0.8-7.3c0-131.7,0-264.2,0-396c0-1.7,0.2-3.8,0.3-5.8
		c-59.6,0-119.2,0-178.9,0c-1.9,5-3.6,8.8-5.8,12.1c-61.3,91.4-122.6,183.3-183.8,275.4c-35,51.1-70,104.2-104.9,156.4
		c-3,4.4-4.9,9.9-5,15.2c-0.3,28.3-0.3,56.2-0.2,84.4c0,10.2,0,19,0,28.9c0,3.6,0.4,8.6,0.6,10.6c94.8,0,187.6,0,282.6,0
		c0,49,0,269.5,0,317.2c64,0,130,99.3,194,99.3c0-48.4,0-367.5,0-416.5c34,0,64,0,97,0c0-56,0-115,0-174C754,409,724,409,691.9,409z
		 M496,409c-23,0-42.3,0-65,0c21.6-36,42-66.4,65-101.8C496,343.1,496,376,496,409z"/>
</g>
<g id="Main_Logo" class="st0">
	<g id="XMLID_40_" class="st2">
		<g id="XMLID_29_">
			<g id="XMLID_96_">
				<path id="XMLID_98_" d="M278.8,501c0.3-2.3,0.6-4.6,1-6.8c1.3-7.4,4-14.2,8.7-20.1c5.1-6.4,11.8-10.2,19.9-11.4
					c6.6-0.9,13.2-0.4,19.4,2.4c7.8,3.6,12.9,9.6,16.1,17.4c1.9,4.8,2.7,9.8,3.3,14.9c-7.1,0.7-14.1,1.5-21.3,2.2
					c-0.4-2-0.8-3.9-1.3-5.8c-0.9-3.3-1.9-6.6-4.4-9.2c-3.6-3.6-9.6-3.3-12.8,0.6c-2.2,2.7-3.3,5.9-3.9,9.3
					c-1.4,7.9-1.4,15.8,0.6,23.7c0.7,2.6,1.8,5,3.6,7.1c3.8,4.3,9.7,4.3,13.6,0.1c2.7-2.9,3.7-6.5,3.9-10.3c0-0.9,0.2-1.9,0.3-3
					c7.2,0.8,14.3,1.6,21.7,2.4c-0.4,2.7-0.5,5.3-1.1,7.9c-2,10.1-7.3,18-16.5,23c-6,3.2-12.6,4-19.3,3.5
					c-13.8-1-22.1-9.1-27.3-21.2c-2.3-5.3-3.5-10.9-3.9-16.7c0-0.3-0.1-0.6-0.2-0.9C278.8,507.1,278.8,504,278.8,501z"/>
			</g>
			<g id="XMLID_64_">
				<path id="XMLID_69_" d="M555.1,547.8c-1.9,0-3.7,0-5.5,0c-4.5,0-9,0-13.6,0c-0.9,0-1.3-0.2-1.8-1c-8-13.4-15.9-26.9-23.9-40.3
					c-0.3-0.5-0.6-1-1.1-1.5c0,14.2,0,28.4,0,42.7c-6.7,0-13.3,0-20,0c0-28,0-56.1,0-84.3c0.4,0,0.8-0.1,1.3-0.1
					c6.6,0,13.1,0,19.7,0c0.8,0,1.3,0.2,1.7,1c7.5,12.7,15.1,25.4,22.6,38c0.2,0.4,0.5,0.7,0.9,1.4c0-13.6,0-26.9,0-40.3
					c6.6,0,13.1,0,19.7,0C555.1,491.5,555.1,519.6,555.1,547.8z"/>
			</g>
			<g id="XMLID_61_">
				<path id="XMLID_63_" d="M441.3,547.8c-6.8,0-13.3,0-19.9,0c0-28.1,0-56.1,0-84.4c0.4,0,0.8,0,1.2,0c6.6,0,13.2,0,19.8,0
					c0.8,0,1.3,0.3,1.7,1c7.5,12.6,15,25.3,22.5,37.9c0.3,0.4,0.5,0.9,1,1.2c0-13.3,0-26.6,0-40c6.6,0,13.1,0,19.7,0
					c0,28.1,0,56.1,0,84.3c-0.4,0-0.8,0.1-1.2,0.1c-6,0-12,0-18,0c-0.8,0-1.3-0.3-1.7-1c-8.1-13.6-16.1-27.2-24.2-40.8
					c-0.2-0.4-0.4-0.7-0.9-1C441.3,519.2,441.3,533.4,441.3,547.8z"/>
			</g>
			<g id="XMLID_49_">
				<path id="XMLID_52_" d="M420.4,507.4c-0.1,7.3-1.6,15.9-6.2,23.8c-5.7,9.7-13.8,15.8-25.1,17.3c-10.5,1.4-20.2-0.5-28.3-7.8
					c-5.9-5.3-9.6-12.1-11.6-19.7c-3.3-12.6-3.1-25,2.3-37.1c3.4-7.7,8.7-14,16.3-18c4.4-2.3,9.1-3.5,14-3.7
					c9.4-0.5,17.9,1.8,25,8.3c5.1,4.6,8.5,10.4,10.7,16.8C419.6,493.3,420.4,499.5,420.4,507.4z M396.6,505.8c0-0.8,0-1.7,0-2.5
					c-0.2-4.6-0.7-9.1-2.3-13.4c-0.9-2.2-1.9-4.2-3.8-5.7c-5-3.9-12.9-2.3-16.1,3.4c-0.6,1-1.1,2.1-1.4,3.3
					c-2.6,8.8-2.6,17.7-0.8,26.7c0.5,2.3,1.4,4.5,2.5,6.5c3.8,6.7,12.3,6,16.4,2.1c2.2-2,3.4-4.5,4.1-7.3
					C396.4,514.6,396.6,510.2,396.6,505.8z"/>
			</g>
			<g id="XMLID_43_">
				<path id="XMLID_47_" d="M579.7,483.7c0,3.8,0,7.5,0,11.3c9.3,0,18.6,0,27.9,0c0,6.8,0,13.3,0,20c-9.3,0-18.6,0-27.9,0
					c0,4.1,0,8,0,12.1c5.9,0,11.7,0,17.6,0c5.9,0,11.7,0,17.7,0c0,6.9,0,13.7,0,20.6c-19.3,0-38.6,0-57.9,0c0-28.1,0-56.1,0-84.3
					c19.1,0,38.2,0,57.4,0c0,6.7,0,13.4,0,20.2C602.9,483.7,591.3,483.7,579.7,483.7z"/>
			</g>
			<g id="XMLID_36_">
				<path id="XMLID_38_" d="M683.6,497.6c-7.4,0.8-14.4,1.5-21.5,2.3c-0.5-2.1-0.8-4.2-1.4-6.2c-0.9-3.3-1.9-6.4-4.4-8.9
					c-3.5-3.5-9.4-3.2-12.6,0.6c-2.5,2.9-3.6,6.5-4.2,10.2c-1.2,7.8-1.4,15.6,0.9,23.3c0.6,2.2,1.7,4.3,3.1,6.2
					c3.8,5.1,10.3,5.1,14.4,0.2c2.1-2.5,3.1-5.5,3.4-8.8c0.1-1.3,0.2-2.6,0.3-4c7.2,0.8,14.4,1.6,21.5,2.4
					c-0.2,18-11.4,32.6-29.2,34.3c-5.6,0.5-11.1,0.2-16.4-1.8c-7.1-2.6-12.1-7.7-15.8-14.2c-3.8-6.6-5.8-13.8-6.4-21.4
					c-0.7-9-0.1-17.9,3.2-26.4c2.9-7.5,7.4-13.9,14.4-18.2c4.6-2.8,9.6-4.2,15-4.5c6.6-0.4,12.8,0.7,18.6,4
					c7.9,4.5,12.5,11.5,14.8,20.1C682.3,490.1,682.8,493.8,683.6,497.6z"/>
			</g>
			<g id="XMLID_31_">
				<path id="XMLID_35_" d="M747.2,463.7c0,6.8,0,13.6,0,20.5c-6.6,0-13.2,0-20,0c0,21.3,0,42.5,0,63.7c-7.9,0-15.7,0-23.6,0
					c0-21.2,0-42.3,0-63.6c-6.7,0-13.3,0-20,0c0-6.9,0-13.7,0-20.6C704.7,463.7,725.9,463.7,747.2,463.7z"/>
			</g>
		</g>
		<path id="XMLID_6_" d="M279,339v100h238.7c0-11,0-22,0.1-33.1c0-2.1,0.8-4.2,1.9-5.9c13.4-20.4,26.9-41,40.4-61H279z M327,349
			c0,17.9-0.2,35.7-0.2,53.6c0,4.4-0.5,8.8-1.9,13c-2.3,7.1-7.2,11.6-14.4,13.3c-7.8,1.9-15.7,1.8-23.5-0.4
			c-0.6-0.2-0.9-0.4-0.9-1.1c0-5,0-9.9,0-14.9c0-0.2,0-0.3,0.1-0.7c2.3,0.2,4.6,0.4,6.9,0.4c2.9,0,5.8,0.1,8.7-0.2
			c2.9-0.3,3.9-1.3,4.3-4.1c0.3-1.9,0.6-3.8,0.6-5.7c0-17.7,0.2-35.4,0.2-53.1c0-0.5,0-1.2,0-1.2c6,0,13,0,20,0
			C327,348,327,348.6,327,349z M352,430c-6,0-13,0-19,0c0-27,0-54,0-82c6,0,13,0,19,0C352,375,352,403,352,430z M438,430
			c-6,0-13,0-19,0c0-17,0-32.7,0-48.9c-1,0-0.4,0-0.5-0.1c-1.1,3.6-2.4,7.1-3.5,10.7c-3.9,12.3-7.8,24.6-11.7,36.9
			c-0.3,0.8-0.6,1.1-1.5,1.1c-3-0.1-5.9-0.1-8.9,0c-1.2,0-1.7-0.3-2.1-1.5c-4.9-15.6-10.1-31.1-15.1-46.7c-0.1-0.3,0.3-0.7-0.7-0.9
			c0,16.3,0,32.4,0,49.4c-5,0-11,0-17,0c0-27,0-54,0-82c1,0,1.4,0,1.9,0c7.8,0,15.5,0.2,23.3,0.1c1.3,0,1.8,0.4,2.2,1.7
			c4.1,12.8,8.3,25.6,12.4,38.4c0.2,0.5,0.3,0.8,0.6,1.6c4.5-14,8.9-27.8,13.3-41.8c8.8,0,17.2,0,26.2,0C438,375,438,402,438,430z
			 M491.9,429.7c-0.3,0-0.8-0.5-1-0.9c-3.6-8.6-7.1-17.2-10.7-25.8c-1.2-2.8-2.3-5.6-3.5-8.5c-0.4,0.4-0.6,0.7-0.9,1
			c-3.1,4.1-6.3,8.3-9.4,12.5c-0.4,0.5-0.6,1.4-0.6,2c0,6.6,0,13.1,0,20.1c-6.5,0-12.8,0-19.8,0c0-27,0-54,0-82c7,0,13,0,20,0
			c0,11,0,22.1,0,32.9c0,0,0.1,0.1,0.1,0.1c0.4-0.6,0.8-1.1,1.2-1.7c7.4-10,14.7-20.1,22.1-30.2c0.5-0.6,1-1.1,1.8-1.1
			c6.2,0,12.5-0.1,18.7-0.1c0.4,0,0.7,0,1.3,0c-0.3,1-0.6,1-0.8,1.3c-6.2,8.7-12.5,17.4-18.7,26c-0.5,0.8-0.7,1.4-0.3,2.3
			c7.1,16.9,14.1,33.8,21.1,50.8c0.1,0.4,0.3,0.7,0.5,1.3C505.8,429.7,498.9,429.7,491.9,429.7z"/>
		<rect id="XMLID_5_" x="278.8" y="448" width="239.2" height="6"/>
		<g id="XMLID_3_">
			<path id="XMLID_7_" class="st3" d="M699,552c0-21,0-42,0-64c-4,0-8.6,0-13.1,0c0.8,5,1.6,8.7,2.4,13c-9.9,1-19.7,2.2-29.4,3.2
				c-0.6-2.9-1.2-5.6-1.8-8.4c-0.6-2.7-1.3-5.4-3.1-7.5c-0.6-0.7-1.4-1.3-2.3-1.6c-1.8-0.7-3.8,0-5,1.5c-2.2,2.7-2.8,5.9-3.3,9.2
				c-1,6.7-1,13.3,0.8,19.9c0.6,2.2,1.5,4.2,3.1,5.9c1.8,2,4.4,2.3,6.4,0.5c1-0.9,2-2.1,2.5-3.3c0.7-1.9,1-4,1.2-6.1
				c0.3-2.1,0.4-4.2,0.6-6.4c9.8,1.1,19.5,2.1,29.1,3.2c0.4,5.4-0.4,12.3-2.4,17.7c-4.6,12.7-13.4,20.6-26.7,23.5
				c-1.9,0.4-3.9,0.7-5.9,0.7c-1.8,0-3.5,0-5.3,0c-1.4,0-2.7-0.2-4.1-0.4c-3.5-0.6-6.7-1.5-9.7-2.9c0,13.9,0,25.3,0,30.9
				c25,0,51,38.8,76,38.8c0-8.3,0-36.3,0-67.3C705.8,552,703,552,699,552z"/>
			<path id="XMLID_32_" class="st3" d="M522,452.6c0,1.4,0.1,3.4,0.2,4.4c37.1,0,73.8,0,110.8,0c0,1.4,0,3.2,0,5.3
				c4.5-2.3,9.8-3.6,15.5-3.8c12.8-0.5,22.5,4,31.5,14.6c0-4.7,0-9,0-13c9,0,19.2,0,29,0c0-1,0-2.3,0-3c13,0,25,0,38,0
				c0-22,0-45,0-68c-13,0-25.1,0-37.6,0c-0.1-1-0.3-2.1-0.3-3.1c0-51.5,0-103.2,0-154.7c0-0.7,0.1-1.1,0.1-2.1c-23.3,0-46.6,0-70,0
				c-0.8,2-1.4,3.1-2.3,4.4C613,269.2,589,305,565.1,341c-13.7,20-27.4,40.7-41,61.1c-1.2,1.7-1.9,3.8-1.9,5.9
				c-0.1,11.1-0.1,22-0.1,33C522,445,522,448.7,522,452.6z M633,348.6c0,14.1,0,27.4,0,40.4c-9,0-16.8,0-25.7,0
				C615.8,375,624,362.4,633,348.6z"/>
		</g>
	</g>
</g>
</svg>
