<?xml version="1.0" encoding="utf-8"?>
<!-- Generator: Adobe Illustrator 19.0.0, SVG Export Plug-In . SVG Version: 6.00 Build 0)  -->
<svg version="1.1" xmlns="http://www.w3.org/2000/svg" xmlns:xlink="http://www.w3.org/1999/xlink" x="0px" y="0px"
	 viewBox="0 0 1000 1000" style="enable-background:new 0 0 1000 1000;" xml:space="preserve">
<style type="text/css">
	.st0{display:none;}
	.st1{display:inline;stroke:#000000;stroke-miterlimit:10;}
	.st2{display:inline;fill:#FF0000;}
	.st3{display:inline;}
	.st4{fill:#FFFFFF;}
	.st5{fill:#FF0000;}
</style>
<g id="Background" class="st0">
	<rect id="XMLID_3_" x="-93" y="-40.5" class="st1" width="1153.4" height="1082.9"/>
</g>
<g id="Layer_3" class="st0">
</g>
<g id="_x34_" class="st0">
	<path id="XMLID_10_" class="st2" d="M-133.6,111c-0.1-1-0.3-2.1-0.3-3.1c0-51.5,0-103.2,0-154.7c0-0.7,0.1-1.1,0.1-2.1
		c-23.3,0-46.6,0-70,0c-0.8,2-1.4,3.2-2.3,4.5C-230-8.8-254,27.1-277.9,63.1c-13.7,20-27.4,40.7-41,61.1c-1.2,1.7-1.9,3.8-1.9,5.9
		c-0.1,11.1-0.1,22-0.1,33c0,4,0,7.6,0,11.5c0,1.4,0.1,3.4,0.2,4.4c37.1,0,73.7,0,110.7,0c0,19,0,104.9,0,123.6
		c25,0,51,38.8,76,38.8c0-18.9,0-143.4,0-162.4c13,0,25,0,38,0c0-22,0-45,0-68C-109,111-121,111-133.6,111z M-210,111
		c-9,0-16.8,0-25.6,0c8.5-14,16.6-26.5,25.6-40.3C-210,84.7-210,98-210,111z"/>
</g>
<g id="connect" class="st0">
	<g id="XMLID_2_" class="st3">
		<g id="XMLID_30_">
			<path id="XMLID_78_" d="M-468.4,585.1c0.3-2.3,0.6-4.6,1-6.8c1.3-7.4,4-14.2,8.7-20.1c5.1-6.4,11.8-10.2,19.9-11.4
				c6.6-0.9,13.2-0.4,19.4,2.4c7.8,3.6,12.9,9.6,16.1,17.4c1.9,4.8,2.7,9.8,3.3,14.9c-7.1,0.7-14.1,1.5-21.3,2.2
				c-0.4-2-0.8-3.9-1.3-5.8c-0.9-3.3-1.9-6.6-4.4-9.2c-3.6-3.6-9.6-3.3-12.8,0.6c-2.2,2.7-3.3,5.9-3.9,9.3
				c-1.4,7.9-1.4,15.8,0.6,23.7c0.7,2.6,1.8,5,3.6,7.1c3.8,4.3,9.7,4.3,13.6,0.1c2.7-2.9,3.7-6.5,3.9-10.3c0-0.9,0.2-1.9,0.3-3
				c7.2,0.8,14.3,1.6,21.7,2.4c-0.4,2.7-0.5,5.3-1.1,7.9c-2,10.1-7.3,18-16.5,23c-6,3.2-12.6,4-19.3,3.5c-13.8-1-22.1-9.1-27.3-21.2
				c-2.3-5.3-3.5-10.9-3.9-16.7c0-0.3-0.1-0.6-0.2-0.9C-468.4,591.2-468.4,588.1-468.4,585.1z"/>
		</g>
		<g id="XMLID_28_">
			<path id="XMLID_76_" d="M-192,631.9c-1.9,0-3.7,0-5.5,0c-4.5,0-9,0-13.6,0c-0.9,0-1.3-0.2-1.8-1c-8-13.4-15.9-26.9-23.9-40.3
				c-0.3-0.5-0.6-1-1.1-1.5c0,14.2,0,28.4,0,42.7c-6.7,0-13.3,0-20,0c0-28,0-56.1,0-84.3c0.4,0,0.8-0.1,1.3-0.1c6.6,0,13.1,0,19.7,0
				c0.8,0,1.3,0.2,1.7,1c7.5,12.7,15.1,25.4,22.6,38c0.2,0.4,0.5,0.7,0.9,1.4c0-13.6,0-26.9,0-40.3c6.6,0,13.1,0,19.7,0
				C-192,575.6-192,603.7-192,631.9z"/>
		</g>
		<g id="XMLID_27_">
			<path id="XMLID_73_" d="M-305.8,631.9c-6.8,0-13.3,0-19.9,0c0-28.1,0-56.1,0-84.4c0.4,0,0.8,0,1.2,0c6.6,0,13.2,0,19.8,0
				c0.8,0,1.3,0.3,1.7,1c7.5,12.6,15,25.3,22.5,37.9c0.3,0.4,0.5,0.9,1,1.2c0-13.3,0-26.6,0-40c6.6,0,13.1,0,19.7,0
				c0,28.1,0,56.1,0,84.3c-0.4,0-0.8,0.1-1.2,0.1c-6,0-12,0-18,0c-0.8,0-1.3-0.3-1.7-1c-8.1-13.6-16.1-27.2-24.2-40.8
				c-0.2-0.4-0.4-0.7-0.9-1C-305.8,603.3-305.8,617.5-305.8,631.9z"/>
		</g>
		<g id="XMLID_24_">
			<path id="XMLID_93_" d="M-326.7,591.5c-0.1,7.3-1.6,15.9-6.2,23.8c-5.7,9.7-13.8,15.8-25.1,17.3c-10.5,1.4-20.2-0.5-28.3-7.8
				c-5.9-5.3-9.6-12.1-11.6-19.7c-3.3-12.6-3.1-25,2.3-37.1c3.4-7.7,8.7-14,16.3-18c4.4-2.3,9.1-3.5,14-3.7c9.4-0.5,17.9,1.8,25,8.3
				c5.1,4.6,8.5,10.4,10.7,16.8C-327.5,577.4-326.7,583.6-326.7,591.5z M-350.5,589.9c0-0.8,0-1.7,0-2.5c-0.2-4.6-0.7-9.1-2.3-13.4
				c-0.9-2.2-1.9-4.2-3.8-5.7c-5-3.9-12.9-2.3-16.1,3.3c-0.6,1-1.1,2.1-1.4,3.3c-2.6,8.8-2.6,17.7-0.8,26.7c0.5,2.3,1.4,4.5,2.5,6.5
				c3.8,6.7,12.3,6,16.4,2.1c2.2-2,3.4-4.5,4.1-7.3C-350.8,598.7-350.6,594.3-350.5,589.9z"/>
		</g>
		<g id="XMLID_23_">
			<path id="XMLID_71_" d="M-167.5,567.8c0,3.8,0,7.5,0,11.3c9.3,0,18.6,0,27.9,0c0,6.8,0,13.3,0,20c-9.3,0-18.6,0-27.9,0
				c0,4.1,0,8,0,12.1c5.9,0,11.7,0,17.6,0c5.9,0,11.7,0,17.7,0c0,6.9,0,13.7,0,20.6c-19.3,0-38.6,0-57.9,0c0-28.1,0-56.1,0-84.3
				c19.1,0,38.2,0,57.4,0c0,6.7,0,13.4,0,20.2C-144.3,567.8-155.8,567.8-167.5,567.8z"/>
		</g>
		<g id="XMLID_13_">
			<path id="XMLID_67_" d="M-63.6,581.7c-7.4,0.8-14.4,1.5-21.5,2.3c-0.5-2.1-0.8-4.2-1.4-6.2c-0.9-3.3-1.9-6.4-4.4-8.9
				c-3.5-3.5-9.4-3.2-12.6,0.6c-2.5,2.9-3.6,6.5-4.2,10.2c-1.2,7.8-1.4,15.6,0.9,23.3c0.6,2.2,1.7,4.3,3.1,6.2
				c3.8,5.1,10.3,5.1,14.4,0.2c2.1-2.5,3.1-5.5,3.4-8.8c0.1-1.3,0.2-2.6,0.3-4c7.2,0.8,14.4,1.6,21.5,2.4
				c-0.2,18-11.4,32.6-29.2,34.3c-5.6,0.5-11.1,0.2-16.4-1.8c-7.1-2.6-12.1-7.7-15.8-14.2c-3.8-6.6-5.8-13.8-6.4-21.4
				c-0.7-9-0.1-17.9,3.2-26.4c2.9-7.5,7.4-13.9,14.4-18.2c4.6-2.8,9.6-4.2,15-4.5c6.6-0.4,12.8,0.7,18.6,4
				c7.9,4.5,12.5,11.5,14.8,20.1C-64.9,574.2-64.4,577.9-63.6,581.7z"/>
		</g>
		<g id="XMLID_12_">
			<path id="XMLID_65_" d="M0,547.8c0,6.8,0,13.6,0,20.5c-6.6,0-13.2,0-20,0c0,21.3,0,42.5,0,63.7c-7.9,0-15.7,0-23.6,0
				c0-21.2,0-42.3,0-63.6c-6.7,0-13.3,0-20,0c0-6.9,0-13.7,0-20.6C-42.4,547.8-21.3,547.8,0,547.8z"/>
		</g>
	</g>
</g>
<g id="JIMK" class="st0">
	<path id="XMLID_19_" class="st3" d="M-280.5,435.8c-0.3-0.8-0.5-1.2-0.6-1.7c-4.2-12.8-8.3-25.5-12.4-38.3c-0.4-1.3-1-1.7-2.2-1.7
		c-7.8,0.1-15.5-0.1-23.3-0.1c-0.5,0-0.9,0-1.9,0c0,28,0,55,0,82c6,0,12,0,17,0c0-17,0-33.1,0-49.4c1,0.3,0.6,0.6,0.7,0.9
		c5,15.6,10,31.1,14.9,46.7c0.4,1.2,0.9,1.5,2.1,1.5c3-0.1,5.9-0.1,8.9,0c0.9,0,1.2-0.3,1.5-1.1c3.9-12.3,7.8-24.6,11.7-36.9
		c1.1-3.6,2.5-7.1,3.6-10.7c0.1,0-0.5,0,0.5,0.1c0,16.2,0,31.9,0,48.9c6,0,13,0,19,0c0-28,0-55,0-82c-9,0-17.4,0-26.2,0
		C-271.6,408-276.1,421.8-280.5,435.8z"/>
	<path id="XMLID_20_" class="st3" d="M-181.6,423.7c-0.4-0.9-0.3-1.5,0.3-2.3c6.3-8.6,12.5-17.4,18.7-26.1c0.2-0.3,0.5-0.3,0.8-1.3
		c-0.6,0-1,0-1.3,0c-6.2,0-12.5,0.2-18.7,0.1c-0.8,0-1.3,0.3-1.8,1c-7.4,10.1-14.8,20.1-22.1,30.2c-0.4,0.6-0.7,1.1-1.2,1.7
		c-0.1,0-0.1,0-0.1-0.1c0-10.8,0-21.9,0-32.9c-7,0-13,0-20,0c0,28,0,55,0,82c7,0,13.3,0,19.8,0c0-7,0-13.5,0-20.1
		c0-0.6,0.2-1.4,0.6-1.9c3.1-4.2,6.2-8.4,9.4-12.5c0.2-0.3,0.5-0.6,0.9-1c1.2,2.9,2.4,5.7,3.5,8.5c3.6,8.6,7.1,17.2,10.7,25.8
		c0.2,0.4,0.6,0.9,1,0.9c7,0.1,13.9,0,21.1,0c-0.2-0.5-0.3-0.9-0.5-1.3C-167.5,457.5-174.6,440.6-181.6,423.7z"/>
	<path id="XMLID_21_" class="st3" d="M-379,395.2c0,17.7-0.1,35.4-0.2,53.1c0,1.9-0.2,3.8-0.6,5.7c-0.5,2.8-1.5,3.9-4.3,4.1
		c-2.9,0.3-5.8,0.2-8.7,0.2c-2.3,0-4.5-0.3-6.9-0.4c0,0.4-0.1,0.5-0.1,0.7c0,5,0,9.9,0,14.9c0,0.7,0.3,0.9,0.9,1.1
		c7.8,2.2,15.6,2.3,23.5,0.4c7.2-1.8,12-6.3,14.3-13.3c1.4-4.2,1.9-8.6,1.9-13c0-17.9,0.2-35.7,0.2-53.6c0-0.4,0-1,0-1
		c-7,0-14,0-20,0C-379,394-379,394.7-379,395.2z"/>
	<path id="XMLID_22_" class="st3" d="M-352,476c6,0,13,0,19,0c0-27,0-55,0-82c-6,0-13,0-19,0C-352,422-352,449-352,476z"/>
</g>
<g id="Icon_Logo" class="st0">
	<path id="XMLID_1_" class="st2" d="M691.9,409c-0.3-2-0.8-4.7-0.8-7.3c0-131.7,0-264.2,0-396c0-1.7,0.2-3.8,0.3-5.8
		c-59.6,0-119.2,0-178.9,0c-1.9,5-3.6,8.8-5.8,12.1c-61.3,91.4-122.6,183.3-183.8,275.4c-35,51.1-70,104.2-104.9,156.4
		c-3,4.4-4.9,9.9-5,15.2c-0.3,28.3-0.3,56.2-0.2,84.4c0,10.2,0,19,0,28.9c0,3.6,0.4,8.6,0.6,10.6c94.8,0,187.6,0,282.6,0
		c0,49,0,269.5,0,317.2c64,0,130,99.3,194,99.3c0-48.4,0-367.5,0-416.5c34,0,64,0,97,0c0-56,0-115,0-174C754,409,724,409,691.9,409z
		 M496,409c-23,0-42.3,0-65,0c21.6-36,42-66.4,65-101.8C496,343.1,496,376,496,409z"/>
</g>
<g id="Main_Logo">
	<g id="XMLID_40_">
		<g id="XMLID_29_">
			<g id="XMLID_96_">
				<path id="XMLID_80_" class="st4" d="M-0.2,664.2c0.7-4.9,1.2-9.8,2.1-14.6c2.8-15.8,8.6-30.3,18.7-43
					c11-13.7,25.1-21.9,42.5-24.3c14.2-2,28.1-0.9,41.4,5.1c16.6,7.6,27.7,20.4,34.4,37.2c4.1,10.2,5.7,20.8,7.1,31.9
					c-15.2,1.6-30.2,3.2-45.5,4.8c-0.9-4.3-1.7-8.4-2.7-12.4c-1.8-7.2-4.1-14.2-9.4-19.6c-7.7-7.8-20.5-7.2-27.4,1.3
					c-4.7,5.8-7.1,12.6-8.3,19.8c-3,16.9-3.1,33.8,1.2,50.6c1.4,5.6,3.9,10.7,7.7,15.1c8,9.1,20.8,9.2,29,0.3
					c5.8-6.2,7.9-13.8,8.3-22c0.1-2,0.3-4,0.6-6.4c15.4,1.7,30.7,3.4,46.3,5.1c-0.8,5.7-1.2,11.3-2.3,16.8
					c-4.3,21.6-15.5,38.5-35.2,49c-12.9,6.9-26.9,8.6-41.3,7.5c-29.4-2.2-47.2-19.4-58.3-45.2c-4.9-11.4-7.4-23.4-8.4-35.7
					c0-0.6-0.3-1.3-0.5-1.9C-0.2,677.2-0.2,670.7-0.2,664.2z"/>
			</g>
			<g id="XMLID_64_">
				<path id="XMLID_77_" class="st4" d="M590.2,764.3c-4,0-7.8,0-11.7,0c-9.7,0-19.3,0-29,0c-1.8,0-2.9-0.5-3.8-2.2
					c-17-28.7-34.1-57.4-51.1-86.1c-0.6-1.1-1.3-2.1-2.4-3.1c0,30.3,0,60.7,0,91.2c-14.4,0-28.4,0-42.6,0c0-59.9,0-119.8,0-180
					c0.9,0,1.8-0.1,2.7-0.1c14,0,28,0,42.1,0c1.8,0,2.7,0.5,3.6,2.1c16,27.1,32.2,54.2,48.3,81.3c0.5,0.8,1,1.6,1.9,3
					c0-29,0-57.4,0-86c14.2,0,28,0,42.2,0C590.2,644,590.2,703.9,590.2,764.3z"/>
			</g>
			<g id="XMLID_61_">
				<path id="XMLID_72_" class="st4" d="M347.1,764.2c-14.4,0-28.4,0-42.6,0c0-60,0-120,0-180.2c0.8,0,1.7,0,2.5,0
					c14.1,0,28.2,0,42.3,0c1.8,0,2.7,0.6,3.6,2.1c16,27,32.1,54,48.1,81c0.5,0.9,1.1,1.8,2.2,2.6c0-28.5,0-56.9,0-85.5
					c14.2,0,28.1,0,42.1,0c0,60,0,119.9,0,180.1c-0.9,0-1.7,0.1-2.5,0.1c-12.8,0-25.6,0-38.5,0c-1.8,0-2.7-0.6-3.6-2.1
					c-17.2-29.1-34.5-58.1-51.8-87.2c-0.5-0.8-1-1.5-1.9-2.2C347.1,703.2,347.1,733.5,347.1,764.2z"/>
			</g>
			<g id="XMLID_49_">
				<path id="XMLID_98_" class="st4" d="M302.4,678c-0.1,15.5-3.4,34-13.2,50.9c-12.1,20.7-29.5,33.9-53.6,37.1
					c-22.4,3-43.1-1-60.4-16.7c-12.5-11.4-20.4-25.8-24.7-42.1c-7.1-26.9-6.6-53.5,4.9-79.2c7.4-16.5,18.5-29.8,34.7-38.4
					c9.3-5,19.4-7.4,29.9-7.9c20.1-1,38.3,3.9,53.4,17.7c10.8,9.9,18.1,22.1,22.9,35.9C300.7,647.9,302.4,660.9,302.4,678z
					 M251.6,674.6c0-1.8,0.1-3.6,0-5.4c-0.4-9.8-1.4-19.4-5-28.6c-1.8-4.7-4.1-9.1-8.1-12.2c-10.7-8.3-27.5-4.9-34.4,7.2
					c-1.3,2.2-2.4,4.6-3.1,7c-5.5,18.8-5.7,37.9-1.6,57c1,4.8,3,9.7,5.4,14c8.1,14.3,26.2,12.8,35,4.6c4.6-4.3,7.3-9.6,8.9-15.5
					C251,693.3,251.5,684,251.6,674.6z"/>
			</g>
			<g id="XMLID_43_">
				<path id="XMLID_69_" class="st4" d="M642.8,627.2c0,8.2,0,16,0,24.2c19.8,0,39.7,0,59.6,0c0,14.4,0,28.5,0,42.8
					c-19.9,0-39.7,0-59.6,0c0,8.7,0,17.1,0,25.9c12.6,0,25.1,0,37.6,0c12.5,0,25.1,0,37.8,0c0,14.8,0,29.3,0,44
					c-41.3,0-82.4,0-123.7,0c0-60,0-120,0-180.1c40.9,0,81.7,0,122.7,0c0,14.3,0,28.6,0,43.1C692.3,627.2,667.6,627.2,642.8,627.2z"
					/>
			</g>
			<g id="XMLID_36_">
				<path id="XMLID_66_" class="st4" d="M864.7,656.9c-15.7,1.7-30.7,3.2-45.9,4.8c-1-4.5-1.8-8.9-2.9-13.2c-1.8-7-4.1-13.8-9.4-19
					c-7.4-7.4-20.1-6.8-26.9,1.2c-5.3,6.3-7.7,13.9-8.9,21.8c-2.7,16.7-2.9,33.4,1.8,49.7c1.4,4.6,3.7,9.3,6.5,13.2
					c8.1,10.9,22,10.9,30.7,0.5c4.6-5.4,6.7-11.8,7.2-18.8c0.2-2.8,0.5-5.6,0.7-8.6c15.5,1.7,30.7,3.4,45.9,5
					c-0.4,38.5-24.3,69.7-62.3,73.2c-12,1.1-23.7,0.3-35.1-3.9c-15.2-5.6-25.9-16.5-33.8-30.3c-8.2-14.1-12.3-29.6-13.6-45.8
					c-1.6-19.3-0.2-38.3,6.9-56.5c6.2-16.1,15.8-29.7,30.7-38.9c9.8-6,20.6-8.9,32.1-9.5c14-0.8,27.4,1.5,39.7,8.6
					c16.8,9.7,26.7,24.6,31.7,42.9C862,640.9,863.1,648.7,864.7,656.9z"/>
			</g>
			<g id="XMLID_31_">
				<path id="XMLID_62_" class="st4" d="M1000.6,584.5c0,14.6,0,29,0,43.8c-14.2,0-28.3,0-42.7,0c0,45.6,0,90.8,0,136.1
					c-16.9,0-33.6,0-50.4,0c0-45.3,0-90.5,0-136c-14.3,0-28.5,0-42.8,0c0-14.8,0-29.3,0-44C909.9,584.5,955.1,584.5,1000.6,584.5z"
					/>
			</g>
		</g>
		<path id="XMLID_6_" class="st4" d="M0,318v213h510.2c0-22-0.1-46.6,0.2-70.3c0-4.4,1.6-8.8,4.1-12.5
			C543.2,404.6,572,361,600.8,318H0z M103,339.4c0,38.2-0.4,76.4-0.4,114.6c0,9.4-1.1,18.8-4,27.8c-5,15.1-15.4,24.7-30.7,28.5
			c-16.7,4.2-33.5,3.9-50.2-0.8c-1.3-0.4-2-0.8-2-2.4c0.1-10.6,0-21.2,0-31.8c0-0.3,0.1-0.7,0.2-1.5c5,0.3,9.9,0.8,14.7,0.9
			c6.2,0.1,12.5,0.2,18.6-0.3c6.1-0.6,8.2-2.8,9.2-8.8c0.7-4,1.3-8.1,1.3-12.2c0.1-37.8,0.3-75.7,0.3-113.5c0-1,0-2.8,0-2.8
			c12,0,28,0,43,0C103,337,103,338.5,103,339.4z M156,512c-12,0-28,0-40,0c0-57,0-115,0-175c12,0,28,0,40,0C156,396,156,455,156,512
			z M341,512c-14,0-28,0-41,0c0-35,0-69.4,0-104c-3,0-1.2-0.1-1.5-0.1c-2.4,7.6-5.2,15.2-7.6,22.8c-8.3,26.3-16.8,52.5-25.1,78.8
			c-0.5,1.8-1.4,2.4-3.3,2.4c-6.3-0.1-12.7-0.2-19,0c-2.6,0.1-3.6-0.7-4.4-3.2c-10.5-33.3-21.3-66.5-31.9-99.7
			c-0.2-0.7-0.3-1.4-1.3-2c0,34.8,0,70,0,105c-12,0-24,0-37,0c0-57,0-115,0-175c3,0,3.1,0,4.1,0c16.6,0,33.2,0.5,49.7,0.4
			c2.7,0,3.9,1,4.8,3.6c8.8,27.4,17.7,54.8,26.6,82.1c0.3,1,0.7,1.6,1.3,3.3c9.6-30,19-58.4,28.5-89.4c18.9,0,36.1,0,57.1,0
			C341,396,341,453,341,512z M455.2,511.8c-0.7,0-1.7-1.2-2.1-2c-7.7-18.3-15.3-36.7-22.9-55.1c-2.5-6-5-11.9-7.6-18.2
			c-0.8,0.9-1.3,1.5-1.8,2.1c-6.7,8.9-13.4,17.7-20,26.6c-0.8,1.1-1.3,2.8-1.3,4.1c-0.1,14.1-0.1,27.6-0.1,42.6
			c-13.9,0-27.5,0-42.5,0c0-57,0-115,0-175c15,0,28,0,43,0c0,24,0,47.4,0,70.6c0,0.1,0,0.1,0.2,0.2c0.9-1.2,1.7-2.3,2.5-3.5
			c15.8-21.5,31.5-42.9,47.2-64.4c1-1.4,2-2.4,3.8-2.4c13.3,0.1,26.6-0.4,39.9-0.4c0.8,0,1.5,0,2.8,0c-0.7,3-1.2,2.3-1.7,3
			c-13.3,18.5-26.7,37.2-40.1,55.7c-1.2,1.6-1.4,3-0.6,5c15.1,36.1,30.1,72.3,45.2,108.5c0.3,0.8,0.6,1.6,1,2.7
			C484.9,511.8,470,511.9,455.2,511.8z"/>
		<rect id="XMLID_5_" x="-0.2" y="551" class="st4" width="511.1" height="12.8"/>
		<g id="XMLID_7_">
			<path id="XMLID_8_" class="st5" d="M898,773c0-45,0-89,0-136c-9,0-18.6,0-28.3,0c1.7,10,3.4,18.3,5.2,27.4
				c-21.2,2.2-42,4.5-62.9,6.6c-1.4-6.3-2.5-12.1-3.9-17.9c-1.3-5.7-2.7-11.5-6.7-16.2c-1.3-1.5-3.1-2.8-4.9-3.5
				c-3.9-1.5-8.1,0-10.8,3.3c-4.6,5.8-6.1,12.7-7.1,19.7c-2,14.3-2.2,28.4,1.8,42.4c1.3,4.7,3.3,9,6.6,12.6c3.9,4.3,9.3,4.8,13.7,1
				c2.2-1.9,4.3-4.4,5.3-7.1c1.5-4.1,2-8.6,2.6-12.9c0.6-4.4,0.8-8.9,1.3-13.6c21,2.3,41.6,4.6,62.2,6.8c0.9,11.6-0.8,26.3-5,37.9
				c-9.9,27-28.6,43.9-57.1,49.9c-4.1,0.9-8.4,1.3-12.6,1.3c-3.8,0-7.5,0-11.3,0c-2.9,0-5.7-0.3-8.6-0.8c-7.5-1.2-13.5-3-20.5-6.1
				c0,29.6,0,54.1,0,65.9c54,0,108,83,162,83c0-17.6,0-78.1,0-144.1C912,773,906,773,898,773z"/>
			<path id="XMLID_11_" class="st5" d="M519.5,561.1c0,3,0.3,6.9,0.5,9.9c79.2,0,157,0,237,0c0,2,0,6,0,10.5
				c9-4.9,21.3-7.7,33.4-8.2c27.3-1.1,47.6,8.6,67.6,31.1c0-10,0-19.4,0-27.4c19,0,40,0,61,0c0-2,0-5,0-6c27,0,53,0,81,0
				c0-47,0-97,0-146c-28,0-53.3,0-80.1,0c-0.3-3-0.7-4.6-0.7-6.8c0-110.1,0-220.5,0-330.6c0-1.4,0.2-2.4,0.3-4.6
				c-49.8,0-99.6,0-149.5,0c-1.6,4.3-3,6.7-4.9,9.5c-51.2,76.4-102.4,152.9-153.6,229.8c-29.2,42.7-58.5,86.9-87.7,130.6
				c-2.5,3.7-4.1,8.2-4.2,12.7c-0.3,23.7-0.2,47.2-0.2,70.7C519.4,544.8,519.5,552.8,519.5,561.1z M757,338.5c0,30,0,58.5,0,86.5
				c-20,0-36.3,0-55.2,0C719.9,396,737,368.1,757,338.5z"/>
		</g>
	</g>
</g>
</svg>
